<?xml version="1.0" standalone="no"?>
<!DOCTYPE svg PUBLIC "-//W3C//DTD SVG 20010904//EN"
 "http://www.w3.org/TR/2001/REC-SVG-20010904/DTD/svg10.dtd">
<svg version="1.0" xmlns="http://www.w3.org/2000/svg"
 width="32.000000pt" height="32.000000pt" viewBox="0 0 32.000000 32.000000"
 preserveAspectRatio="xMidYMid meet">

<g transform="translate(0.000000,32.000000) scale(0.100000,-0.100000)"
fill="#000000" stroke="none">
<path d="M0 248 l1 -73 14 39 c7 22 22 48 33 58 10 11 36 26 58 33 l39 14 -72
1 -73 0 0 -72z"/>
<path d="M203 306 c51 -19 73 -40 92 -91 23 -60 8 -108 -50 -164 -43 -41 -65
-46 -65 -15 0 8 10 14 23 14 48 1 87 56 87 122 0 41 -5 54 -33 84 -60 66 -171
56 -217 -19 -31 -50 -26 -109 10 -151 30 -33 82 -60 94 -49 14 15 4 32 -21 35
l-28 3 0 95 c0 91 1 95 23 98 12 2 22 -1 22 -6 0 -5 -8 -9 -17 -8 -16 1 -18
-9 -18 -84 l0 -85 53 -3 53 -3 -3 88 c-3 77 -5 88 -20 87 -10 -1 -18 3 -18 8
0 5 10 8 23 6 21 -3 22 -7 22 -98 0 -92 -1 -94 -25 -100 -16 -4 -26 -14 -28
-28 -4 -25 -20 -27 -65 -8 -43 18 -77 57 -87 98 -6 25 -8 14 -9 -49 l-1 -83
160 0 160 0 0 160 0 160 -77 0 -78 -1 38 -13z m-53 -106 c0 -5 -5 -10 -11 -10
-5 0 -7 5 -4 10 3 6 8 10 11 10 2 0 4 -4 4 -10z m24 -44 c-8 -20 -18 -20 -35
0 -12 15 -11 16 9 10 15 -5 22 -3 22 5 0 7 2 10 5 7 3 -3 3 -13 -1 -22z"/>
<path d="M190 29 c0 -5 5 -7 10 -4 6 3 10 8 10 11 0 2 -4 4 -10 4 -5 0 -10 -5
-10 -11z"/>
</g>
</svg>
